<?xml version="1.0" encoding="iso-8859-1"?>
<!-- Generator: Adobe Illustrator 16.0.0, SVG Export Plug-In . SVG Version: 6.00 Build 0)  -->
<!DOCTYPE svg PUBLIC "-//W3C//DTD SVG 1.1//EN" "http://www.w3.org/Graphics/SVG/1.1/DTD/svg11.dtd">
<svg xmlns="http://www.w3.org/2000/svg" xmlns:xlink="http://www.w3.org/1999/xlink" version="1.1" id="Capa_1" x="0px" y="0px" width="512px" height="512px" viewBox="0 0 721.611 721.611" style="enable-background:new 0 0 721.611 721.611;" xml:space="preserve">
<g>
	<g>
		<path d="M197.532,452.149h-48.229c-12.414,0-21.42,7.398-21.42,17.592v28.572c0,10.299,9.011,17.78,21.42,17.78h48.229    c12.569,0,21.694-7.477,21.694-17.78v-28.572C219.226,459.548,210.101,452.149,197.532,452.149z M200.958,497.199    c-0.712,0.302-1.941,0.621-3.425,0.621h-48.229c-1.416,0-2.512-0.283-3.151-0.548v-26.361c0.667-0.242,1.758-0.489,3.151-0.489    h48.229c1.521,0,2.713,0.283,3.425,0.558V497.199z" fill="#d6d7d7"/>
		<path d="M321.946,570.896h-48.211c-10.578,0-17.972,7.983-17.972,19.41v28.567c0,11.894,7.559,20.529,17.972,20.529h48.215    c10.97,0,20.593-9.595,20.593-20.529v-28.567C342.54,579.601,333.305,570.896,321.946,570.896z M324.271,618.873    c0,0.868-1.434,2.261-2.325,2.261h-47.572c-0.169-0.47-0.342-1.242-0.342-2.261v-28.567c0-0.475,0.036-0.858,0.086-1.142h47.828    c1.333,0,2.325,0.872,2.325,1.142V618.873z" fill="#d6d7d7"/>
		<path d="M197.532,328.835h-48.229c-11.208,0-21.42,9.71-21.42,20.374v28.568c0,11.701,11.075,19.565,21.42,19.565h48.229    c10.262,0,21.694-8.033,21.694-19.565V349.21C219.226,337.55,207.771,328.835,197.532,328.835z M197.532,379.074h-48.229    c-1.43,0-2.95-1.051-3.151-1.297l-0.009-28.462c0.178-0.749,1.95-2.211,3.161-2.211h48.229c1.301,0,3.21,1.494,3.425,2.105    l0.073,28.157C200.743,377.951,199.062,379.074,197.532,379.074z" fill="#d6d7d7"/>
		<path d="M197.532,570.896h-48.229c-10.345,0-21.42,7.801-21.42,19.41v28.567c0,10.747,10.212,20.529,21.42,20.529h48.229    c10.239,0,21.694-8.777,21.694-20.529v-28.567C219.226,578.696,208.009,570.896,197.532,570.896z M197.532,621.134h-48.229    c-1.114,0-2.973-1.512-3.151-2.261l-0.064-28.234c0.265-0.521,1.772-1.475,3.22-1.475h48.229c1.438,0,2.964,0.886,3.425,1.461    l0.018,28.07C200.729,619.6,198.733,621.134,197.532,621.134z" fill="#d6d7d7"/>
		<path d="M446.392,328.835h-48.229c-10.7,0-19.086,8.947-19.086,20.374v28.568c0,11.153,8.207,19.565,19.086,19.565h48.229    c10.911,0,19.461-8.595,19.461-19.565V349.21C465.853,337.975,457.125,328.835,446.392,328.835z M447.584,377.777    c0,1.297-0.896,1.297-1.192,1.297h-48.229c-0.401,0-0.817,0-0.817-1.297V349.21c0-1.311,0.585-2.019,0.74-2.097    c0,0,0.022-0.004,0.082-0.004h48.229c0.406-0.005,1.188,0.886,1.188,2.101V377.777z" fill="#d6d7d7"/>
		<path d="M570.806,452.149h-48.229c-11.884,0-20.187,7.234-20.187,17.592v28.572c0,10.469,8.303,17.78,20.191,17.78h48.229    c11.153,0,18.36-6.979,18.36-17.78v-28.572C589.167,459.055,581.959,452.149,570.806,452.149z M570.898,497.82    c-0.027,0-0.06,0-0.092,0h-48.229c-0.858,0-1.498-0.104-1.922-0.219v-26.992c0.438-0.101,1.073-0.191,1.918-0.191h48.229    c0.031,0,0.059,0,0.091,0v27.402H570.898z" fill="#d6d7d7"/>
		<path d="M570.806,328.835h-48.229c-10.942,0-20.187,9.331-20.187,20.374v28.568c0,10.788,9.057,19.565,20.191,19.565h48.229    c10.637,0,18.36-8.229,18.36-19.565V349.21C589.167,337.595,581.274,328.835,570.806,328.835z M570.898,377.777    c0,0.63-0.087,1.051-0.165,1.297h-48.151c-0.986,0-1.923-0.63-1.923-1.297V349.21c0-1.019,1.128-2.105,1.923-2.105h47.91    c0.173,0.352,0.406,1.045,0.406,2.105V377.777L570.898,377.777z" fill="#d6d7d7"/>
		<path d="M538.658,77.642H181.456c-29.038,0-53.573,23.754-53.573,51.869v82.131c0,28.865,24.535,53.253,53.573,53.253h357.202    c27.851,0,50.509-23.891,50.509-53.253v-82.131C589.167,100.427,566.979,77.642,538.658,77.642z M570.898,211.642    c0,19.292-14.465,34.984-32.24,34.984H181.456c-18.808,0-35.304-16.35-35.304-34.984v-82.131    c0-18.214,16.168-33.601,35.304-33.601h357.202c18.379,0,32.24,14.446,32.24,33.601V211.642L570.898,211.642z" fill="#d6d7d7"/>
		<path d="M575.145,0H144.918c-49.687,0-90.11,34.555-90.11,77.025v567.498c0,42.507,40.424,77.089,90.11,77.089h430.227    c50.216,0,88.676-31.65,90.978-74.171c0.438-1.068,0.681-2.242,0.681-3.471V77.025C666.808,34.555,625.69,0,575.145,0z     M648.54,640.772c-0.365,0.974-0.566,2.02-0.575,3.12c-0.297,33.893-31.601,59.45-72.819,59.45H144.918    c-39.611,0-71.842-26.384-71.842-58.82V77.025c0-32.399,32.23-58.756,71.842-58.756h430.227c40.47,0,73.395,26.357,73.395,58.756    V640.772z" fill="#d6d7d7"/>
		<path d="M570.806,570.896h-48.229c-11.135,0-20.191,8.705-20.191,19.41v28.567c0,11.131,9.244,20.529,20.191,20.529h48.229    c10.468,0,18.36-8.828,18.36-20.529v-28.567C589.167,579.057,581.448,570.896,570.806,570.896z M570.898,618.873    c0,1.073-0.256,1.863-0.466,2.261h-47.855c-0.758,0-1.922-1.215-1.922-2.261v-28.567c0-0.671,1.014-1.142,1.922-1.142    l48.202,0.027c0.06,0.246,0.114,0.616,0.114,1.114v28.567H570.898z" fill="#d6d7d7"/>
		<path d="M321.946,328.835h-48.211c-10.414,0-17.972,8.568-17.972,20.374v28.568c0,11.519,7.39,19.565,17.972,19.565h48.215    c11.158,0,20.589-8.961,20.589-19.565V349.21C342.54,338.354,332.917,328.835,321.946,328.835z M324.271,377.777    c0,0.302-0.991,1.297-2.325,1.297l-47.8-0.014c-0.064-0.306-0.114-0.735-0.114-1.283V349.21c0-0.978,0.15-1.681,0.296-2.105    h47.618c1.004,0,2.325,1.324,2.325,2.105V377.777z" fill="#d6d7d7"/>
		<path d="M446.36,570.896h-48.229c-10.861,0-19.055,8.344-19.055,19.41v28.567c0,11.514,8.372,20.529,19.055,20.529h48.229    c10.747,0,19.493-9.212,19.493-20.529v-28.567C465.853,579.422,457.29,570.896,446.36,570.896z M447.584,618.873    c0,1.284-0.868,2.261-1.225,2.261l-48.17,0.023c-0.251-0.138-0.845-0.996-0.845-2.284v-28.567c0-0.685,0.179-1.01,0.215-1.051    c0.036-0.022,0.215-0.091,0.571-0.091h48.229c1.129,0,1.225,0.539,1.225,1.142V618.873z" fill="#d6d7d7"/>
		<path d="M321.946,452.149h-48.211c-11.084,0-17.972,6.74-17.972,17.592v28.572c0,10.966,6.888,17.78,17.972,17.78h48.215    c11.934,0,20.593-7.477,20.593-17.78v-28.572C342.54,459.384,334.072,452.149,321.946,452.149z M324.271,497.501    c-0.479,0.16-1.256,0.319-2.325,0.319h-47.914v-27.402h47.914c1.046,0,1.817,0.137,2.325,0.283V497.501z" fill="#d6d7d7"/>
		<path d="M446.36,452.149h-48.197c-11.418,0-19.086,7.069-19.086,17.592v28.572c0,10.633,7.673,17.78,19.086,17.78h48.197    c11.478,0,19.493-7.312,19.493-17.78v-28.572C465.853,459.219,458.02,452.149,446.36,452.149z M447.575,497.729    c-0.306,0.05-0.708,0.091-1.21,0.091h-48.202c-0.324,0-0.594-0.014-0.817-0.036l0.019-27.335c0.224-0.018,0.488-0.031,0.799-0.031    h48.197c0.498,0,0.904,0.031,1.225,0.077L447.575,497.729z" fill="#d6d7d7"/>
	</g>
</g>
<g>
</g>
<g>
</g>
<g>
</g>
<g>
</g>
<g>
</g>
<g>
</g>
<g>
</g>
<g>
</g>
<g>
</g>
<g>
</g>
<g>
</g>
<g>
</g>
<g>
</g>
<g>
</g>
<g>
</g>
</svg>
